<svg width="16" height="16" viewBox="0 0 16 16" fill="none" xmlns="http://www.w3.org/2000/svg">
<path d="M7.92113 8.04499C7.56512 8.04499 7.2785 7.95146 7.06128 7.76441C6.84405 7.57735 6.68716 7.29978 6.59062 6.93171C6.49407 6.56363 6.4458 6.11107 6.4458 5.57404C6.4458 4.99477 6.49709 4.52109 6.59967 4.15302C6.70828 3.7789 6.8712 3.50435 7.08843 3.32937C7.31169 3.15438 7.59227 3.06688 7.93018 3.06688C8.29223 3.06688 8.58186 3.15438 8.79909 3.32937C9.02235 3.50435 9.18225 3.77589 9.2788 4.14397C9.37534 4.50601 9.42361 4.97365 9.42361 5.54689C9.42361 6.12012 9.36931 6.5938 9.26069 6.96791C9.15811 7.33599 8.99519 7.60752 8.77193 7.78251C8.55471 7.9575 8.27111 8.04499 7.92113 8.04499ZM7.93018 7.21229C8.00862 7.21229 8.07198 7.18212 8.12026 7.12178C8.16853 7.0554 8.20775 6.95584 8.23792 6.82309C8.26809 6.69034 8.28619 6.52139 8.29223 6.31623C8.30429 6.11107 8.31033 5.86971 8.31033 5.59214C8.31033 5.2844 8.30429 5.02494 8.29223 4.81375C8.28016 4.59652 8.25904 4.42153 8.22887 4.28878C8.20473 4.15 8.16551 4.05345 8.1112 3.99915C8.06293 3.93881 8.00561 3.90864 7.93923 3.90864C7.86682 3.90864 7.80347 3.93881 7.74916 3.99915C7.70089 4.05949 7.66167 4.15603 7.6315 4.28878C7.60736 4.42153 7.58926 4.59954 7.57719 4.8228C7.56512 5.04002 7.55909 5.30251 7.55909 5.61024C7.55909 5.88781 7.5621 6.12616 7.56814 6.32528C7.58021 6.52441 7.59831 6.69034 7.62244 6.82309C7.65261 6.95584 7.69184 7.0554 7.74011 7.12178C7.79441 7.18212 7.85777 7.21229 7.93018 7.21229Z" fill="white"/>
<path d="M9.73683 7.94543V5.42922L9.72778 3.16645H10.7506L10.6962 5.01287H10.7687C10.7868 4.53015 10.8411 4.15302 10.9316 3.88148C11.0281 3.60995 11.1488 3.41988 11.2936 3.31126C11.4384 3.19662 11.5953 3.13929 11.7643 3.13929C11.7884 3.13929 11.8065 3.13929 11.8186 3.13929C11.8367 3.13929 11.8578 3.14231 11.8819 3.14834L11.8367 4.37929C11.8065 4.36723 11.7763 4.36119 11.7462 4.36119C11.716 4.35516 11.6828 4.35214 11.6466 4.35214C11.4777 4.35214 11.3328 4.40946 11.2122 4.52411C11.0915 4.63273 11.001 4.80771 10.9406 5.04908C10.8863 5.2844 10.8592 5.59516 10.8592 5.98134V7.94543H9.73683Z" fill="white"/>
<path d="M13.1176 8.04499C12.8702 8.04499 12.659 7.95146 12.4841 7.76441C12.3151 7.57132 12.1884 7.29073 12.1039 6.92265C12.0194 6.54854 11.9772 6.10202 11.9772 5.58309C11.9772 5.01589 12.0224 4.54825 12.113 4.18017C12.2095 3.80606 12.3392 3.52849 12.5022 3.34747C12.6651 3.16645 12.8521 3.07593 13.0633 3.07593C13.2443 3.07593 13.3952 3.13929 13.5159 3.26601C13.6366 3.38669 13.7361 3.57073 13.8146 3.81813C13.893 4.06552 13.9533 4.37628 13.9956 4.75039H14.0861C14.0499 4.51506 14.0167 4.2918 13.9865 4.08061C13.9624 3.86942 13.9413 3.67331 13.9232 3.49229C13.9051 3.31126 13.896 3.14834 13.896 3.00353V2H15.0003L14.9912 5.68265L15.0003 7.94543H14.0318L14.0861 6.51535H14.0137C13.9715 6.90154 13.9111 7.20927 13.8327 7.43857C13.7542 7.66183 13.6547 7.81871 13.534 7.90923C13.4133 7.99974 13.2745 8.04499 13.1176 8.04499ZM13.4435 7.18514C13.5098 7.18514 13.5702 7.14592 13.6245 7.06747C13.6848 6.98903 13.7331 6.88645 13.7693 6.75973C13.8115 6.62699 13.8417 6.47915 13.8598 6.31623C13.884 6.15331 13.896 5.98436 13.896 5.80937V5.6193C13.896 5.46844 13.887 5.31759 13.8689 5.16674C13.8568 5.01589 13.8387 4.87409 13.8146 4.74134C13.7904 4.60255 13.7603 4.48187 13.7241 4.37929C13.6879 4.27671 13.6456 4.19525 13.5973 4.13491C13.5551 4.07457 13.5038 4.0444 13.4435 4.0444C13.3771 4.0444 13.3168 4.10173 13.2624 4.21637C13.2081 4.32499 13.1659 4.49696 13.1357 4.73229C13.1056 4.96762 13.0905 5.27234 13.0905 5.64645C13.0905 5.96625 13.1025 6.24382 13.1267 6.47915C13.1508 6.70845 13.187 6.88343 13.2353 7.00412C13.2896 7.1248 13.359 7.18514 13.4435 7.18514Z" fill="white"/>
<path d="M1.84175 7.97373L1 2H2.2038L2.6473 6.99621H2.69256L3.13606 2H4.46657L4.91913 6.99621H4.95533L5.41694 2H6.54833L5.67942 7.97373H4.20409L3.79679 2.95942H3.76964L3.33518 7.97373H1.84175Z" fill="white"/>
<path d="M3.81587 14.4745L2.97412 8.5008H4.17792L4.62142 13.497H4.66668L5.11018 8.5008H6.44069L6.89325 13.497H6.92945L7.39106 8.5008H8.52245L7.65354 14.4745H6.17821L5.77091 9.46022H5.74376L5.30931 14.4745H3.81587Z" fill="white"/>
<path d="M8.8386 14.4745V9.69555H9.93378V14.4745H8.8386ZM9.38167 9.44231C9.17651 9.44231 9.01359 9.39705 8.89291 9.30654C8.77826 9.21603 8.72093 9.0863 8.72093 8.91734C8.72093 8.74839 8.77826 8.61866 8.89291 8.52815C9.01359 8.43764 9.17651 8.39238 9.38167 8.39238C9.59286 8.39238 9.75578 8.43764 9.87042 8.52815C9.99111 8.61866 10.0514 8.74839 10.0514 8.91734C10.0514 9.09233 9.99111 9.22508 9.87042 9.31559C9.75578 9.40007 9.59286 9.44231 9.38167 9.44231Z" fill="white"/>
<path d="M10.3213 14.4745V13.5875L11.8147 10.6188V10.5826H10.3575V9.69555H12.9551V10.6007L11.4617 13.5604V13.5875H12.937V14.4745H10.3213Z" fill="white"/>
</svg>
